<svg xmlns="http://www.w3.org/2000/svg" xmlns:xlink="http://www.w3.org/1999/xlink" width="367.019" height="344.608" viewBox="0 0 367.019 344.608">
  <defs>
    <filter id="Path_6" x="0" y="39.001" width="140.87" height="127.661" filterUnits="userSpaceOnUse">
      <feOffset dy="3" input="SourceAlpha"/>
      <feGaussianBlur stdDeviation="10.5" result="blur"/>
      <feFlood flood-opacity="0.2"/>
      <feComposite operator="in" in2="blur"/>
      <feComposite in="SourceGraphic"/>
    </filter>
    <filter id="Path_1" x="74.3" y="179.572" width="292.719" height="165.036" filterUnits="userSpaceOnUse">
      <feOffset dy="3" input="SourceAlpha"/>
      <feGaussianBlur stdDeviation="7" result="blur-2"/>
      <feFlood flood-opacity="0.251"/>
      <feComposite operator="in" in2="blur-2"/>
      <feComposite in="SourceGraphic"/>
    </filter>
    <filter id="Path_3" x="29.875" y="7.564" width="318.87" height="321.961" filterUnits="userSpaceOnUse">
      <feOffset dy="1" input="SourceAlpha"/>
      <feGaussianBlur result="blur-3"/>
      <feFlood flood-color="#e5b325"/>
      <feComposite operator="in" in2="blur-3"/>
      <feComposite in="SourceGraphic"/>
    </filter>
    <linearGradient id="linear-gradient" x1="0.827" y1="0.837" x2="1" y2="0.971" gradientUnits="objectBoundingBox">
      <stop offset="0" stop-color="#f9cd50" stop-opacity="0"/>
      <stop offset="1" stop-color="#f2c033"/>
    </linearGradient>
    <linearGradient id="linear-gradient-2" x1="0.117" y1="0.837" x2="0.014" y2="0.954" xlink:href="#linear-gradient"/>
    <linearGradient id="linear-gradient-3" x1="0.08" y1="0.134" x2="0.028" y2="-0.032" gradientUnits="objectBoundingBox">
      <stop offset="0" stop-color="#f9cd50" stop-opacity="0"/>
      <stop offset="1" stop-color="#ebba2d"/>
    </linearGradient>
  </defs>
  <g id="Component_1_1" data-name="Component 1 – 1" transform="translate(20.652)">
    <g id="Group_1" data-name="Group 1" transform="translate(-319.053 23.253) rotate(-19)">
      <g id="Post-It_Note" data-name="Post-It Note" transform="translate(-3)">
        <g transform="matrix(0.95, 0.33, -0.33, 0.95, 292.71, 75.16)" filter="url(#Path_6)">
          <path id="Path_6-2" data-name="Path 6" d="M156.69,319.559l-5.24-25.153,20.437-13.624,23.057,7.336S267.258,345.236,156.69,319.559Z" transform="translate(-203.11 -126.95) rotate(-19)" fill="#f9cd50"/>
        </g>
        <g transform="matrix(0.95, 0.33, -0.33, 0.95, 292.71, 75.16)" filter="url(#Path_1)">
          <path id="Path_1-2" data-name="Path 1" d="M12.978,206.2l230.568-5.24L250,245,123.546,231.873,0,245Z" transform="translate(29.87 88.96) rotate(-19)" fill="#f9cd50"/>
        </g>
        <g transform="matrix(0.95, 0.33, -0.33, 0.95, 292.71, 75.16)" filter="url(#Path_3)">
          <path id="Path_3-2" data-name="Path 3" d="M0,0H250V245C106.777,263.838,0,245,0,245Z" transform="translate(29.87 88.96) rotate(-19)" fill="#f9cd50"/>
        </g>
        <path id="Path_4" data-name="Path 4" d="M0,0H250V245C106.777,263.838,0,245,0,245Z" transform="translate(292 169)" fill="url(#linear-gradient)"/>
        <path id="Path_5" data-name="Path 5" d="M0,0H250V245C106.777,263.838,0,245,0,245Z" transform="translate(292 169)" fill="url(#linear-gradient-2)"/>
        <path id="Path_7" data-name="Path 7" d="M0,0H250V245C106.777,263.838,0,245,0,245Z" transform="translate(292 169)" fill="url(#linear-gradient-3)"/>
        <rect id="Rectangle_1" data-name="Rectangle 1" width="250" height="44" transform="translate(292 169)" fill="rgba(255,255,255,0.06)"/>
        <text id="_11" data-name="11" transform="translate(468 232)" fill="#3e3a2c" font-size="65" font-family="HelveticaNeue-Bold, Helvetica Neue" font-weight="700"><tspan x="0" y="0">11</tspan></text>
      </g>
      <ellipse id="Ellipse_1" data-name="Ellipse 1" cx="13.5" cy="14" rx="13.5" ry="14" transform="translate(282 161)" fill="#8b74c8"/>
    </g>
  </g>
</svg>
